<?xml version="1.0" encoding="UTF-8"?>
<svg xmlns="http://www.w3.org/2000/svg" width="260" height="65" viewBox="0 0 260 65" fill="none">
  <path fill-rule="evenodd" clip-rule="evenodd" d="M127.71 19.0923C125.936 17.3183 123.043 17.3347 121.249 19.129C119.454 20.9232 119.438 23.8159 121.212 25.5899C122.986 27.3639 125.879 27.3475 127.673 25.5532C129.467 23.7589 129.484 20.8663 127.71 19.0923Z" fill="white"></path>
  <path fill-rule="evenodd" clip-rule="evenodd" d="M135.506 11.2965C133.732 9.52251 130.839 9.53875 129.045 11.3328C127.251 13.1268 127.235 16.0193 129.009 17.7933C130.783 19.5673 133.675 19.551 135.469 17.757C137.263 15.963 137.28 13.0705 135.506 11.2965Z" fill="white"></path>
  <path fill-rule="evenodd" clip-rule="evenodd" d="M143.589 3.21238C141.815 1.43838 138.923 1.45482 137.129 3.24909C135.334 5.04336 135.318 7.93602 137.092 9.71001C138.866 11.484 141.758 11.4676 143.553 9.6733C145.347 7.87903 145.363 4.98638 143.589 3.21238Z" fill="white"></path>
  <path fill-rule="evenodd" clip-rule="evenodd" d="M151.585 11.2072C149.811 9.43344 146.919 9.45007 145.124 11.2443C143.33 13.0386 143.313 15.9311 145.087 17.7048C146.861 19.4786 149.753 19.462 151.548 17.6677C153.342 15.8734 153.359 12.981 151.585 11.2072Z" fill="white"></path>
  <path fill-rule="evenodd" clip-rule="evenodd" d="M159.29 18.9128C157.516 17.1388 154.624 17.1553 152.829 18.9495C151.035 20.7438 151.019 23.6365 152.793 25.4105C154.567 27.1844 157.459 27.168 159.253 25.3737C161.048 23.5795 161.064 20.6868 159.29 18.9128Z" fill="white"></path>
  <path d="M9.63867 64.4531C8.10742 64.4531 6.74284 64.1875 5.54492 63.6562C4.34701 63.1146 3.39909 62.3177 2.70117 61.2656C2.01367 60.2031 1.66992 58.8802 1.66992 57.2969C1.66992 55.9635 1.91471 54.8437 2.4043 53.9375C2.89388 53.0313 3.56055 52.3021 4.4043 51.75C5.24805 51.1979 6.20638 50.7812 7.2793 50.5C8.36263 50.2187 9.49805 50.0208 10.6855 49.9062C12.0814 49.7604 13.2064 49.625 14.0605 49.5C14.9147 49.3646 15.5345 49.1667 15.9199 48.9062C16.3053 48.6458 16.498 48.2604 16.498 47.75V47.6562C16.498 46.6667 16.1855 45.901 15.5605 45.3594C14.946 44.8177 14.071 44.5469 12.9355 44.5469C11.7376 44.5469 10.7845 44.8125 10.0762 45.3437C9.36784 45.8646 8.89909 46.5208 8.66992 47.3125L2.51367 46.8125C2.82617 45.3542 3.44076 44.0937 4.35742 43.0312C5.27409 41.9583 6.45638 41.1354 7.9043 40.5625C9.36263 39.9792 11.0501 39.6875 12.9668 39.6875C14.3001 39.6875 15.5762 39.8437 16.7949 40.1562C18.0241 40.4687 19.1126 40.9531 20.0605 41.6094C21.0189 42.2656 21.7741 43.1094 22.3262 44.1406C22.8783 45.1615 23.1543 46.3854 23.1543 47.8125V64H16.8418V60.6719H16.6543C16.2689 61.4219 15.7533 62.0833 15.1074 62.6562C14.4616 63.2187 13.6855 63.6615 12.7793 63.9844C11.873 64.2969 10.8262 64.4531 9.63867 64.4531ZM11.5449 59.8594C12.5241 59.8594 13.3887 59.6667 14.1387 59.2812C14.8887 58.8854 15.4772 58.3542 15.9043 57.6875C16.3314 57.0208 16.5449 56.2656 16.5449 55.4219V52.875C16.3366 53.0104 16.0501 53.1354 15.6855 53.25C15.3314 53.3542 14.9303 53.4531 14.4824 53.5469C14.0345 53.6302 13.5866 53.7083 13.1387 53.7812C12.6908 53.8437 12.2845 53.901 11.9199 53.9531C11.1387 54.0677 10.4564 54.25 9.87305 54.5C9.28971 54.75 8.83659 55.0885 8.51367 55.5156C8.19076 55.9323 8.0293 56.4531 8.0293 57.0781C8.0293 57.9844 8.35742 58.6771 9.01367 59.1562C9.68034 59.625 10.5241 59.8594 11.5449 59.8594ZM43.709 53.7812V40H50.3652V64H43.9746V59.6406H43.7246C43.1829 61.0469 42.2819 62.1771 41.0215 63.0312C39.7715 63.8854 38.2454 64.3125 36.4434 64.3125C34.8392 64.3125 33.4277 63.9479 32.209 63.2188C30.9902 62.4896 30.0371 61.4531 29.3496 60.1094C28.6725 58.7656 28.3288 57.1562 28.3184 55.2812V40H34.9746V54.0937C34.985 55.5104 35.3652 56.6302 36.1152 57.4531C36.8652 58.276 37.8704 58.6875 39.1309 58.6875C39.9329 58.6875 40.6829 58.5052 41.3809 58.1406C42.0788 57.7656 42.6413 57.2135 43.0684 56.4844C43.5059 55.7552 43.7194 54.8542 43.709 53.7812ZM68.4551 40V45H54.002V40H68.4551ZM57.2832 34.25H63.9395V56.625C63.9395 57.2396 64.0332 57.7187 64.2207 58.0625C64.4082 58.3958 64.6686 58.6302 65.002 58.7656C65.3457 58.901 65.7415 58.9687 66.1895 58.9687C66.502 58.9687 66.8145 58.9427 67.127 58.8906C67.4395 58.8281 67.679 58.7812 67.8457 58.75L68.8926 63.7031C68.5592 63.8073 68.0905 63.9271 67.4863 64.0625C66.8822 64.2083 66.1478 64.2969 65.2832 64.3281C63.679 64.3906 62.2728 64.1771 61.0645 63.6875C59.8665 63.1979 58.9342 62.4375 58.2676 61.4062C57.6009 60.375 57.2728 59.0729 57.2832 57.5V34.25ZM83.377 64.4688C80.9499 64.4688 78.8509 63.9531 77.0801 62.9219C75.3197 61.8802 73.9603 60.4323 73.002 58.5781C72.0436 56.7135 71.5645 54.5521 71.5645 52.0937C71.5645 49.6146 72.0436 47.4479 73.002 45.5937C73.9603 43.7292 75.3197 42.2812 77.0801 41.25C78.8509 40.2083 80.9499 39.6875 83.377 39.6875C85.804 39.6875 87.8978 40.2083 89.6582 41.25C91.429 42.2812 92.7936 43.7292 93.752 45.5937C94.7103 47.4479 95.1895 49.6146 95.1895 52.0937C95.1895 54.5521 94.7103 56.7135 93.752 58.5781C92.7936 60.4323 91.429 61.8802 89.6582 62.9219C87.8978 63.9531 85.804 64.4688 83.377 64.4688ZM83.4082 59.3125C84.5124 59.3125 85.4342 59 86.1738 58.375C86.9134 57.7396 87.4707 56.875 87.8457 55.7812C88.2311 54.6875 88.4238 53.4427 88.4238 52.0469C88.4238 50.651 88.2311 49.4063 87.8457 48.3125C87.4707 47.2187 86.9134 46.3542 86.1738 45.7187C85.4342 45.0833 84.5124 44.7656 83.4082 44.7656C82.2936 44.7656 81.3561 45.0833 80.5957 45.7187C79.8457 46.3542 79.278 47.2187 78.8926 48.3125C78.5176 49.4063 78.3301 50.651 78.3301 52.0469C78.3301 53.4427 78.5176 54.6875 78.8926 55.7812C79.278 56.875 79.8457 57.7396 80.5957 58.375C81.3561 59 82.2936 59.3125 83.4082 59.3125Z" fill="white"></path>
  <path d="M106.408 32V64H99.752V32H106.408ZM111.74 64V40H118.396V64H111.74ZM115.084 36.9062C114.094 36.9062 113.245 36.5781 112.537 35.9219C111.839 35.2552 111.49 34.4583 111.49 33.5312C111.49 32.6146 111.839 31.8281 112.537 31.1719C113.245 30.5052 114.094 30.1719 115.084 30.1719C116.074 30.1719 116.917 30.5052 117.615 31.1719C118.324 31.8281 118.678 32.6146 118.678 33.5312C118.678 34.4583 118.324 35.2552 117.615 35.9219C116.917 36.5781 116.074 36.9062 115.084 36.9062ZM136.635 40V45H121.822V40H136.635ZM125.213 64V38.2656C125.213 36.526 125.551 35.0833 126.229 33.9375C126.916 32.7917 127.854 31.9323 129.041 31.3594C130.229 30.7865 131.577 30.5 133.088 30.5C134.109 30.5 135.041 30.5781 135.885 30.7344C136.739 30.8906 137.374 31.0312 137.791 31.1562L136.604 36.1562C136.343 36.0729 136.02 35.9948 135.635 35.9219C135.26 35.849 134.874 35.8125 134.479 35.8125C133.499 35.8125 132.817 36.0417 132.432 36.5C132.046 36.9479 131.854 37.5781 131.854 38.3906V64H125.213ZM150.779 64.4688C148.311 64.4688 146.186 63.9688 144.404 62.9688C142.633 61.9583 141.269 60.5312 140.311 58.6875C139.352 56.8333 138.873 54.6406 138.873 52.1094C138.873 49.6406 139.352 47.474 140.311 45.6094C141.269 43.7448 142.618 42.2917 144.357 41.25C146.107 40.2083 148.16 39.6875 150.514 39.6875C152.097 39.6875 153.571 39.9427 154.936 40.4531C156.311 40.9531 157.508 41.7083 158.529 42.7187C159.561 43.7292 160.363 45 160.936 46.5312C161.508 48.0521 161.795 49.8333 161.795 51.875V53.7031H141.529V49.5781H155.529C155.529 48.6198 155.321 47.7708 154.904 47.0313C154.488 46.2917 153.91 45.7135 153.17 45.2969C152.441 44.8698 151.592 44.6562 150.623 44.6562C149.613 44.6562 148.717 44.8906 147.936 45.3594C147.165 45.8177 146.561 46.4375 146.123 47.2187C145.686 47.9896 145.462 48.849 145.451 49.7969V53.7187C145.451 54.9062 145.67 55.9323 146.107 56.7969C146.555 57.6615 147.186 58.3281 147.998 58.7969C148.811 59.2656 149.774 59.5 150.889 59.5C151.628 59.5 152.305 59.3958 152.92 59.1875C153.535 58.9792 154.061 58.6667 154.498 58.25C154.936 57.8333 155.269 57.3229 155.498 56.7188L161.654 57.125C161.342 58.6042 160.701 59.8958 159.732 61C158.774 62.0937 157.535 62.9479 156.014 63.5625C154.503 64.1667 152.758 64.4688 150.779 64.4688ZM178.904 40V45H164.451V40H178.904ZM167.732 34.25H174.389V56.625C174.389 57.2396 174.482 57.7187 174.67 58.0625C174.857 58.3958 175.118 58.6302 175.451 58.7656C175.795 58.901 176.191 58.9687 176.639 58.9687C176.951 58.9687 177.264 58.9427 177.576 58.8906C177.889 58.8281 178.128 58.7812 178.295 58.75L179.342 63.7031C179.008 63.8073 178.54 63.9271 177.936 64.0625C177.331 64.2083 176.597 64.2969 175.732 64.3281C174.128 64.3906 172.722 64.1771 171.514 63.6875C170.316 63.1979 169.383 62.4375 168.717 61.4062C168.05 60.375 167.722 59.0729 167.732 57.5V34.25ZM193.92 64.4688C191.451 64.4688 189.326 63.9688 187.545 62.9688C185.774 61.9583 184.41 60.5312 183.451 58.6875C182.493 56.8333 182.014 54.6406 182.014 52.1094C182.014 49.6406 182.493 47.474 183.451 45.6094C184.41 43.7448 185.758 42.2917 187.498 41.25C189.248 40.2083 191.3 39.6875 193.654 39.6875C195.238 39.6875 196.712 39.9427 198.076 40.4531C199.451 40.9531 200.649 41.7083 201.67 42.7187C202.701 43.7292 203.503 45 204.076 46.5312C204.649 48.0521 204.936 49.8333 204.936 51.875V53.7031H184.67V49.5781H198.67C198.67 48.6198 198.462 47.7708 198.045 47.0313C197.628 46.2917 197.05 45.7135 196.311 45.2969C195.581 44.8698 194.732 44.6562 193.764 44.6562C192.753 44.6562 191.857 44.8906 191.076 45.3594C190.305 45.8177 189.701 46.4375 189.264 47.2187C188.826 47.9896 188.602 48.849 188.592 49.7969V53.7187C188.592 54.9062 188.811 55.9323 189.248 56.7969C189.696 57.6615 190.326 58.3281 191.139 58.7969C191.951 59.2656 192.915 59.5 194.029 59.5C194.769 59.5 195.446 59.3958 196.061 59.1875C196.675 58.9792 197.201 58.6667 197.639 58.25C198.076 57.8333 198.41 57.3229 198.639 56.7188L204.795 57.125C204.482 58.6042 203.842 59.8958 202.873 61C201.915 62.0937 200.675 62.9479 199.154 63.5625C197.644 64.1667 195.899 64.4688 193.92 64.4688ZM220.123 64.4688C217.665 64.4688 215.55 63.9479 213.779 62.9062C212.019 61.8542 210.665 60.3958 209.717 58.5312C208.779 56.6667 208.311 54.5208 208.311 52.0937C208.311 49.6354 208.785 47.4792 209.732 45.625C210.691 43.7604 212.05 42.3073 213.811 41.2656C215.571 40.2135 217.665 39.6875 220.092 39.6875C222.186 39.6875 224.019 40.0677 225.592 40.8281C227.165 41.5885 228.41 42.6562 229.326 44.0312C230.243 45.4062 230.748 47.0208 230.842 48.875H224.561C224.383 47.6771 223.915 46.7135 223.154 45.9844C222.404 45.2448 221.42 44.875 220.201 44.875C219.17 44.875 218.269 45.1562 217.498 45.7187C216.738 46.2708 216.144 47.0781 215.717 48.1406C215.29 49.2031 215.076 50.4896 215.076 52C215.076 53.5312 215.285 54.8333 215.701 55.9062C216.128 56.9792 216.727 57.7969 217.498 58.3594C218.269 58.9219 219.17 59.2031 220.201 59.2031C220.962 59.2031 221.644 59.0469 222.248 58.7344C222.863 58.4219 223.368 57.9687 223.764 57.375C224.17 56.7708 224.436 56.0469 224.561 55.2031H230.842C230.738 57.0365 230.238 58.651 229.342 60.0469C228.456 61.4323 227.232 62.5156 225.67 63.2969C224.107 64.0781 222.258 64.4688 220.123 64.4688ZM241.76 50.125V64H235.104V32H241.572V44.2344H241.854C242.395 42.8177 243.27 41.7083 244.479 40.9062C245.687 40.0937 247.202 39.6875 249.025 39.6875C250.692 39.6875 252.145 40.0521 253.385 40.7812C254.635 41.5 255.604 42.5365 256.291 43.8906C256.989 45.2344 257.333 46.8437 257.322 48.7187V64H250.666V49.9062C250.676 48.4271 250.301 47.276 249.541 46.4531C248.791 45.6302 247.739 45.2187 246.385 45.2187C245.479 45.2187 244.676 45.4115 243.979 45.7969C243.291 46.1823 242.749 46.7448 242.354 47.4844C241.968 48.2135 241.77 49.0938 241.76 50.125Z" fill="white"></path>
</svg>
